<svg aria-hidden="true" style="position: absolute; width: 0; height: 0; overflow: hidden;" version="1.1" xmlns="http://www.w3.org/2000/svg" xmlns:xlink="http://www.w3.org/1999/xlink">
<defs>
<symbol id="icon-modal-right" viewBox="0 0 62 32">
<path fill="#ed1c24" style="fill: var(--color1, #ed1c24)" d="M18.082 31.778c1.377-0.592 2.024-2.191 1.397-3.456-0.163-0.329-1.883-2.042-5.019-5.001-2.624-2.476-4.771-4.544-4.771-4.596s11.32-0.094 25.155-0.094h25.155l0.582-0.291c0.896-0.448 1.357-1.161 1.413-2.184 0.055-1.011-0.278-1.732-1.074-2.332l-0.508-0.382-25.362-0.032c-13.949-0.018-25.362-0.074-25.362-0.126s2.171-2.147 4.825-4.657c5.208-4.926 5.321-5.060 5.187-6.18-0.089-0.747-0.656-1.628-1.313-2.039-0.738-0.462-1.959-0.544-2.697-0.18-0.657 0.323-15.141 14.050-15.46 14.652-0.325 0.612-0.304 1.681 0.045 2.313 0.404 0.732 14.885 14.378 15.521 14.626 0.655 0.256 1.635 0.238 2.285-0.041z"></path>
</symbol>
</defs>
</svg>
